<svg width="163" height="37" viewBox="0 0 163 37" fill="none" xmlns="http://www.w3.org/2000/svg">
<path d="M11.9868 3.64893H11.2368V4.39893V11.5631V12.3131H11.9868H30.2115H30.5377L30.7601 12.0745L34.2165 8.36674L34.7103 7.83705L34.1982 7.325L30.7418 3.8686L30.5221 3.64893H30.2115H11.9868Z" stroke="white" stroke-width="1.5"/>
<path d="M24.6812 23.8762L25.4312 23.8762L25.4312 23.1262L25.4312 15.962L25.4312 15.212L24.6812 15.212L6.45648 15.212L6.1303 15.212L5.90788 15.4506L2.45148 19.1584L1.9577 19.6881L2.46975 20.2001L5.92615 23.6565L6.14582 23.8762L6.45648 23.8762L24.6812 23.8762Z" stroke="white" stroke-width="1.5"/>
<rect x="16.1875" y="23.8765" width="4.03024" height="11.4458" stroke="white" stroke-width="1.5"/>
<rect x="16.1875" y="12.3132" width="4.03024" height="2.89906" stroke="white" stroke-width="1.5"/>
<rect x="16.1875" y="0.75" width="4.03024" height="2.89906" stroke="white" stroke-width="1.5"/>
<path d="M42.2144 29.1282V6.53564H46.8651V29.1282H42.2144Z" fill="#7EFA6E"/>
<path d="M49.6221 27.4615C48.3599 26.0851 47.7295 24.3995 47.7295 22.4021C47.7295 20.4061 48.3599 18.7164 49.6221 17.332C50.8829 15.9488 52.4851 15.2566 54.4288 15.2566C56.2165 15.2566 57.6883 15.8184 58.843 16.9395V15.6491H63.4938V29.1283H58.8967V27.6067H58.843C57.6883 28.8836 56.2165 29.5208 54.4288 29.5208C52.4851 29.5208 50.8829 28.8353 49.6221 27.4615ZM53.5739 20.1171C52.9717 20.7125 52.6706 21.4747 52.6706 22.4021C52.6706 23.3309 52.9583 24.089 53.5362 24.6764C54.1129 25.2652 54.875 25.5582 55.8213 25.5582C56.7313 25.5582 57.48 25.2611 58.0687 24.6657C58.6561 24.0675 58.9505 23.3135 58.9505 22.4021C58.9505 21.4747 58.6467 20.7125 58.0419 20.1171C57.4397 19.5229 56.699 19.2245 55.8213 19.2245C54.9288 19.2245 54.1788 19.5229 53.5739 20.1171Z" fill="#74FA84"/>
<path d="M69.7182 15.6489V22.0632C69.7182 23.394 69.9184 24.3402 70.3203 24.9021C70.7249 25.4613 71.4078 25.7408 72.3688 25.7408C73.3326 25.7408 74.0154 25.4613 74.4173 24.9021C74.8219 24.3402 75.0249 23.394 75.0249 22.0632V15.6489H79.6757V23.1923C79.6757 25.433 79.0923 27.0474 77.9283 28.0367C76.7629 29.026 74.9093 29.5206 72.3688 29.5206C69.8311 29.5206 67.9788 29.026 66.8148 28.0367C65.6494 27.0474 65.0674 25.433 65.0674 23.1923V15.6489H69.7182Z" fill="url(#paint0_linear_4_359)"/>
<path d="M81.25 29.1283V15.6491H85.9008V17.0685H85.9545C87.1616 15.8615 88.4493 15.2566 89.815 15.2566C90.4817 15.2566 91.143 15.3453 91.7989 15.52C92.4549 15.6961 93.0839 15.969 93.6861 16.3373C94.291 16.7029 94.783 17.2231 95.1593 17.8965C95.5357 18.5713 95.7239 19.3563 95.7239 20.2515V29.1283H91.0785V21.5096C91.0785 20.8106 90.854 20.1977 90.4064 19.6708C89.9574 19.1439 89.3754 18.8804 88.659 18.8804C87.96 18.8804 87.3256 19.1533 86.7557 19.6977C86.1857 20.2394 85.9008 20.8429 85.9008 21.5096V29.1283H81.25Z" fill="url(#paint1_linear_4_359)"/>
<path d="M104.473 19.0686C103.598 19.0686 102.845 19.3939 102.215 20.0418C101.583 20.687 101.268 21.4652 101.268 22.3752C101.268 23.3041 101.583 24.0931 102.215 24.741C102.845 25.3902 103.598 25.7141 104.473 25.7141C104.892 25.7141 105.29 25.663 105.666 25.5582C106.043 25.4507 106.318 25.3458 106.494 25.241L106.731 25.0851L108.306 28.3164C108.184 28.4024 108.013 28.5127 107.795 28.6444C107.576 28.7734 107.076 28.9509 106.295 29.1767C105.517 29.4052 104.682 29.5208 103.79 29.5208C101.811 29.5208 100.072 28.8258 98.5746 27.4346C97.0758 26.0408 96.3271 24.3727 96.3271 22.429C96.3271 20.4692 97.0758 18.7837 98.5746 17.375C100.072 15.9636 101.811 15.2566 103.79 15.2566C104.682 15.2566 105.505 15.3628 106.258 15.5738C107.01 15.7822 107.544 15.9918 107.86 16.2029L108.306 16.5201L106.731 19.6977C106.153 19.2783 105.4 19.0686 104.473 19.0686Z" fill="url(#paint2_linear_4_359)"/>
<path d="M108.885 29.1282V6.53564H113.536V17.0685H113.589C114.796 15.8614 116.084 15.2565 117.45 15.2565C118.116 15.2565 118.778 15.3452 119.434 15.52C120.09 15.6961 120.719 15.9689 121.321 16.3372C121.926 16.7028 122.418 17.223 122.794 17.8965C123.17 18.5712 123.359 19.3562 123.359 20.2514V29.1282H118.713V21.5095C118.713 20.8106 118.489 20.1976 118.041 19.6707C117.592 19.1438 117.01 18.8804 116.294 18.8804C115.595 18.8804 114.96 19.1532 114.39 19.6976C113.821 20.2393 113.536 20.8428 113.536 21.5095V29.1282H108.885Z" fill="url(#paint3_linear_4_359)"/>
<path d="M138.57 23.0312H128.795C128.795 23.9775 129.102 24.6791 129.715 25.1334C130.328 25.5891 130.995 25.8163 131.715 25.8163C132.468 25.8163 133.062 25.7168 133.5 25.5152C133.937 25.3149 134.436 24.917 134.995 24.3216L138.361 26.0045C136.959 28.3487 134.629 29.5208 131.371 29.5208C129.339 29.5208 127.594 28.8258 126.139 27.4346C124.688 26.0408 123.962 24.3632 123.962 22.4021C123.962 20.4423 124.688 18.7608 126.139 17.3589C127.594 15.9582 129.339 15.2566 131.371 15.2566C133.507 15.2566 135.245 15.8749 136.586 17.1115C137.926 18.3455 138.597 20.109 138.597 22.4021C138.597 22.718 138.588 22.9277 138.57 23.0312ZM128.93 20.4612H134.054C133.946 19.7595 133.668 19.2192 133.22 18.8428C132.776 18.4664 132.204 18.2783 131.505 18.2783C130.734 18.2783 130.121 18.4812 129.667 18.8858C129.211 19.2877 128.965 19.8133 128.93 20.4612Z" fill="url(#paint4_linear_4_359)"/>
<path d="M139.462 29.1283V15.6491H144.113V17.5954H144.166C144.201 17.5282 144.259 17.4422 144.339 17.3373C144.416 17.2298 144.587 17.0457 144.849 16.7836C145.11 16.5188 145.39 16.2822 145.688 16.0738C145.985 15.8628 146.371 15.6746 146.844 15.5093C147.317 15.3413 147.798 15.2566 148.29 15.2566C148.798 15.2566 149.297 15.3265 149.785 15.4663C150.276 15.6061 150.636 15.7459 150.866 15.8857L151.231 16.1007L149.29 20.0364C148.71 19.5498 147.903 19.3052 146.871 19.3052C146.312 19.3052 145.829 19.4275 145.425 19.6708C145.023 19.9154 144.738 20.2125 144.57 20.5633C144.404 20.9155 144.286 21.2139 144.215 21.4612C144.146 21.7059 144.113 21.8967 144.113 22.0365V29.1283H139.462Z" fill="url(#paint5_linear_4_359)"/>
<path d="M151.23 29.1283V15.6491H155.881V17.5954H155.935C155.97 17.5282 156.028 17.4422 156.107 17.3373C156.185 17.2298 156.356 17.0457 156.618 16.7836C156.879 16.5188 157.158 16.2822 157.457 16.0738C157.754 15.8628 158.139 15.6746 158.613 15.5093C159.086 15.3413 159.567 15.2566 160.059 15.2566C160.567 15.2566 161.066 15.3265 161.554 15.4663C162.044 15.6061 162.404 15.7459 162.634 15.8857L163 16.1007L161.059 20.0364C160.478 19.5498 159.672 19.3052 158.639 19.3052C158.08 19.3052 157.598 19.4275 157.193 19.6708C156.791 19.9154 156.506 20.2125 156.338 20.5633C156.173 20.9155 156.055 21.2139 155.983 21.4612C155.915 21.7059 155.881 21.8967 155.881 22.0365V29.1283H151.23Z" fill="#2FAEFF"/>
<defs>
<linearGradient id="paint0_linear_4_359" x1="65.215" y1="21.4923" x2="80.8002" y2="20.9896" gradientUnits="userSpaceOnUse">
<stop stop-color="#74FA84"/>
<stop offset="1" stop-color="#AFFBB8"/>
</linearGradient>
<linearGradient id="paint1_linear_4_359" x1="80.8632" y1="23.1264" x2="91.8609" y2="23.1893" gradientUnits="userSpaceOnUse">
<stop stop-color="#AFFBB8"/>
<stop offset="1" stop-color="#9CEBDD"/>
</linearGradient>
<linearGradient id="paint2_linear_4_359" x1="96.3271" y1="22.3887" x2="108.306" y2="22.3887" gradientUnits="userSpaceOnUse">
<stop stop-color="#9EEEDA"/>
<stop offset="1" stop-color="#65DAE1"/>
</linearGradient>
<linearGradient id="paint3_linear_4_359" x1="108.885" y1="17.8319" x2="127.242" y2="17.3448" gradientUnits="userSpaceOnUse">
<stop stop-color="#73E1DA"/>
<stop offset="1" stop-color="#77CDF8"/>
</linearGradient>
<linearGradient id="paint4_linear_4_359" x1="123.962" y1="22.3887" x2="144.901" y2="22.7494" gradientUnits="userSpaceOnUse">
<stop stop-color="#76D4EF"/>
<stop offset="1" stop-color="#55B9FA"/>
</linearGradient>
<linearGradient id="paint5_linear_4_359" x1="139.973" y1="23.7549" x2="150.62" y2="23.7549" gradientUnits="userSpaceOnUse">
<stop stop-color="#62C4F7"/>
<stop offset="1" stop-color="#2FAEFF"/>
</linearGradient>
</defs>
</svg>
